<svg width="48" height="48" viewBox="0 0 48 48" fill="none" xmlns="http://www.w3.org/2000/svg">
<path d="M0 42.6667V38.2775C0 36.0967 1.32774 34.1356 3.35258 33.3256L8.77695 31.1559C11.3524 30.1257 14.2875 31.2417 15.528 33.7226L16 34.6667C16 34.6667 22.6667 33.3333 28 28C33.3333 22.6667 34.6667 16 34.6667 16L33.7226 15.528C31.2417 14.2875 30.1257 11.3524 31.1559 8.77695L33.3256 3.35258C34.1356 1.32774 36.0967 0 38.2775 0H42.6667C45.6122 0 48 2.38781 48 5.33333C48 28.8975 28.8975 48 5.33333 48C2.38781 48 0 45.6122 0 42.6667Z" fill="white"/>
</svg>
