<svg width="24" height="28" viewBox="0 0 24 28" fill="none" xmlns="http://www.w3.org/2000/svg">
<path d="M0.75 9.5C0.335786 9.5 0 9.83579 0 10.25C0 10.6642 0.335786 11 0.75 11V9.5ZM23.25 11C23.6642 11 24 10.6642 24 10.25C24 9.83579 23.6642 9.5 23.25 9.5V11ZM7.75 1.5C7.75 1.08579 7.41421 0.75 7 0.75C6.58579 0.75 6.25 1.08579 6.25 1.5H7.75ZM6.25 5.25C6.25 5.66421 6.58579 6 7 6C7.41421 6 7.75 5.66421 7.75 5.25H6.25ZM17.75 1.5C17.75 1.08579 17.4142 0.75 17 0.75C16.5858 0.75 16.25 1.08579 16.25 1.5H17.75ZM16.25 5.25C16.25 5.66421 16.5858 6 17 6C17.4142 6 17.75 5.66421 17.75 5.25H16.25ZM5.75 4.125H18.25V2.625H5.75V4.125ZM22.5 8.375V21.5H24V8.375H22.5ZM18.25 25.75H5.75V27.25H18.25V25.75ZM1.5 21.5V8.375H0V21.5H1.5ZM5.75 25.75C3.40279 25.75 1.5 23.8472 1.5 21.5H0C0 24.6756 2.57436 27.25 5.75 27.25V25.75ZM22.5 21.5C22.5 23.8472 20.5972 25.75 18.25 25.75V27.25C21.4256 27.25 24 24.6756 24 21.5H22.5ZM18.25 4.125C20.5972 4.125 22.5 6.02779 22.5 8.375H24C24 5.19936 21.4256 2.625 18.25 2.625V4.125ZM5.75 2.625C2.57436 2.625 0 5.19936 0 8.375H1.5C1.5 6.02779 3.40279 4.125 5.75 4.125V2.625ZM0.75 11H23.25V9.5H0.75V11ZM6.25 1.5V5.25H7.75V1.5H6.25ZM16.25 1.5V5.25H17.75V1.5H16.25Z" fill="#28303F"/>
</svg>
