<svg width="22" height="20" viewBox="0 0 22 20" fill="none" xmlns="http://www.w3.org/2000/svg">
<path d="M19 1H7C5.89543 1 5 1.89543 5 3V6C5 6.55228 4.55228 7 4 7C2.34315 7 1 8.34315 1 10C1 11.6569 2.34315 13 4 13C4.55228 13 5 13.4477 5 14V17C5 18.1046 5.89543 19 7 19H9C9.55229 19 10 18.5523 10 18C10 16.3431 11.3431 15 13 15C14.6569 15 16 16.3431 16 18C16 18.5523 16.4477 19 17 19H19C20.1046 19 21 18.1046 21 17V14C21 13.4477 20.5523 13 20 13C18.3431 13 17 11.6569 17 10C17 8.34315 18.3431 7 20 7C20.5523 7 21 6.55228 21 6V3C21 1.89543 20.1046 1 19 1Z" fill="white"/>
<path d="M7 1.5H19V0.5H7V1.5ZM0.5 10C0.5 11.933 2.067 13.5 4 13.5V12.5C2.61929 12.5 1.5 11.3807 1.5 10H0.5ZM4 6.5C2.067 6.5 0.5 8.067 0.5 10H1.5C1.5 8.61929 2.61929 7.5 4 7.5V6.5ZM16.5 10C16.5 11.933 18.067 13.5 20 13.5V12.5C18.6193 12.5 17.5 11.3807 17.5 10H16.5ZM20 6.5C18.067 6.5 16.5 8.067 16.5 10H17.5C17.5 8.61929 18.6193 7.5 20 7.5V6.5ZM13 14.5C11.067 14.5 9.5 16.067 9.5 18H10.5C10.5 16.6193 11.6193 15.5 13 15.5V14.5ZM16.5 18C16.5 16.067 14.933 14.5 13 14.5V15.5C14.3807 15.5 15.5 16.6193 15.5 18H16.5ZM21.5 6V3H20.5V6H21.5ZM20.5 14V17H21.5V14H20.5ZM17 19.5H19V18.5H17V19.5ZM9 18.5H7V19.5H9V18.5ZM5.5 6V3H4.5V6H5.5ZM4.5 14V17H5.5V14H4.5ZM20 13.5C20.2761 13.5 20.5 13.7239 20.5 14H21.5C21.5 13.1716 20.8284 12.5 20 12.5V13.5ZM20 7.5C20.8284 7.5 21.5 6.82843 21.5 6H20.5C20.5 6.27614 20.2761 6.5 20 6.5V7.5ZM4 13.5C4.27614 13.5 4.5 13.7239 4.5 14H5.5C5.5 13.1716 4.82843 12.5 4 12.5V13.5ZM9.5 18C9.5 18.2761 9.27614 18.5 9 18.5V19.5C9.82843 19.5 10.5 18.8284 10.5 18H9.5ZM4 7.5C4.82843 7.5 5.5 6.82843 5.5 6H4.5C4.5 6.27614 4.27614 6.5 4 6.5V7.5ZM15.5 18C15.5 18.8284 16.1716 19.5 17 19.5V18.5C16.7239 18.5 16.5 18.2761 16.5 18H15.5ZM7 18.5C6.17157 18.5 5.5 17.8284 5.5 17H4.5C4.5 18.3807 5.61929 19.5 7 19.5V18.5ZM20.5 17C20.5 17.8284 19.8284 18.5 19 18.5V19.5C20.3807 19.5 21.5 18.3807 21.5 17H20.5ZM19 1.5C19.8284 1.5 20.5 2.17157 20.5 3H21.5C21.5 1.61929 20.3807 0.5 19 0.5V1.5ZM7 0.5C5.61929 0.5 4.5 1.61929 4.5 3H5.5C5.5 2.17157 6.17157 1.5 7 1.5V0.5Z" fill="white"/>
</svg>
