<svg width="38" height="38" viewBox="0 0 38 38" fill="none" xmlns="http://www.w3.org/2000/svg">
<path d="M24.3327 9.50033C24.3327 10.0526 24.7804 10.5003 25.3327 10.5003C25.885 10.5003 26.3327 10.0526 26.3327 9.50033H24.3327ZM11.666 9.50033C11.666 10.0526 12.1137 10.5003 12.666 10.5003C13.2183 10.5003 13.666 10.0526 13.666 9.50033H11.666ZM18.9993 4.16699C21.9449 4.16699 24.3327 6.55481 24.3327 9.50033H26.3327C26.3327 5.45024 23.0494 2.16699 18.9993 2.16699V4.16699ZM18.9993 2.16699C14.9493 2.16699 11.666 5.45024 11.666 9.50033H13.666C13.666 6.55481 16.0538 4.16699 18.9993 4.16699V2.16699Z" fill="#101010"/>
<path d="M5.63968 27.7144L6.63196 27.8385L5.63968 27.7144ZM32.36 27.7144L31.3677 27.8385L32.36 27.7144ZM30.7766 15.0478L31.7689 14.9237L30.7766 15.0478ZM7.22302 15.0478L6.23074 14.9237L7.22302 15.0478ZM13.5074 10.5H24.4922V8.5H13.5074V10.5ZM29.7844 15.1718L31.3677 27.8385L33.3522 27.5904L31.7689 14.9237L29.7844 15.1718ZM26.0755 33.8333H11.9241V35.8333H26.0755V33.8333ZM6.63196 27.8385L8.21529 15.1718L6.23074 14.9237L4.64741 27.5904L6.63196 27.8385ZM11.9241 33.8333C8.71612 33.8333 6.23406 31.0217 6.63196 27.8385L4.64741 27.5904C4.10029 31.9673 7.51312 35.8333 11.9241 35.8333V33.8333ZM31.3677 27.8385C31.7656 31.0217 29.2835 33.8333 26.0755 33.8333V35.8333C30.4865 35.8333 33.8994 31.9673 33.3522 27.5904L31.3677 27.8385ZM24.4922 10.5C27.1819 10.5 29.4507 12.5029 29.7844 15.1718L31.7689 14.9237C31.3102 11.2539 28.1906 8.5 24.4922 8.5V10.5ZM13.5074 8.5C9.80907 8.5 6.68947 11.2539 6.23074 14.9237L8.21529 15.1718C8.54891 12.5029 10.8177 10.5 13.5074 10.5V8.5Z" fill="#101010"/>
</svg>
