<svg width="22" height="22" viewBox="0 0 22 22" fill="none" xmlns="http://www.w3.org/2000/svg">
<path d="M10.4697 10.4697C10.1768 10.7626 10.1768 11.2374 10.4697 11.5303C10.7626 11.8232 11.2374 11.8232 11.5303 11.5303L10.4697 10.4697ZM21.5303 1.53033C21.8232 1.23744 21.8232 0.762563 21.5303 0.46967C21.2374 0.176777 20.7626 0.176777 20.4697 0.46967L21.5303 1.53033ZM16.25 11C16.25 13.8995 13.8995 16.25 11 16.25V17.75C14.7279 17.75 17.75 14.7279 17.75 11H16.25ZM11 16.25C8.1005 16.25 5.75 13.8995 5.75 11H4.25C4.25 14.7279 7.27208 17.75 11 17.75V16.25ZM5.75 11C5.75 8.1005 8.1005 5.75 11 5.75V4.25C7.27208 4.25 4.25 7.27208 4.25 11H5.75ZM11 5.75C13.8995 5.75 16.25 8.1005 16.25 11H17.75C17.75 7.27208 14.7279 4.25 11 4.25V5.75ZM11.5303 11.5303L21.5303 1.53033L20.4697 0.46967L10.4697 10.4697L11.5303 11.5303ZM20.25 11C20.25 16.1086 16.1086 20.25 11 20.25V21.75C16.9371 21.75 21.75 16.9371 21.75 11H20.25ZM11 20.25C5.89137 20.25 1.75 16.1086 1.75 11H0.25C0.25 16.9371 5.06294 21.75 11 21.75V20.25ZM1.75 11C1.75 5.89137 5.89137 1.75 11 1.75V0.25C5.06294 0.25 0.25 5.06294 0.25 11H1.75ZM11 1.75C16.1086 1.75 20.25 5.89137 20.25 11H21.75C21.75 5.06294 16.9371 0.25 11 0.25V1.75Z" fill="white"/>
</svg>
