<svg width="21" height="21" viewBox="0 0 21 21" fill="none" xmlns="http://www.w3.org/2000/svg">
<path d="M12.099 8.67675L12.7297 9.08259L12.099 8.67675ZM7.85 7.65C7.85 8.06421 8.18579 8.4 8.6 8.4C9.01421 8.4 9.35 8.06421 9.35 7.65H7.85ZM9.75 11.925C9.75 12.3392 10.0858 12.675 10.5 12.675C10.9142 12.675 11.25 12.3392 11.25 11.925H9.75ZM11.25 14.3C11.25 13.8858 10.9142 13.55 10.5 13.55C10.0858 13.55 9.75 13.8858 9.75 14.3H11.25ZM9.75 15.25C9.75 15.6642 10.0858 16 10.5 16C10.9142 16 11.25 15.6642 11.25 15.25H9.75ZM19.25 10.5C19.25 15.3325 15.3325 19.25 10.5 19.25V20.75C16.1609 20.75 20.75 16.1609 20.75 10.5H19.25ZM10.5 19.25C5.66751 19.25 1.75 15.3325 1.75 10.5H0.25C0.25 16.1609 4.83908 20.75 10.5 20.75V19.25ZM1.75 10.5C1.75 5.66751 5.66751 1.75 10.5 1.75V0.25C4.83908 0.25 0.25 4.83908 0.25 10.5H1.75ZM10.5 1.75C15.3325 1.75 19.25 5.66751 19.25 10.5H20.75C20.75 4.83908 16.1609 0.25 10.5 0.25V1.75ZM11.65 7.65C11.65 7.88006 11.5832 8.09223 11.4682 8.27091L12.7297 9.08259C12.9957 8.66912 13.15 8.17643 13.15 7.65H11.65ZM9.35 7.65C9.35 7.01487 9.86487 6.5 10.5 6.5V5C9.03645 5 7.85 6.18645 7.85 7.65H9.35ZM10.5 6.5C11.1351 6.5 11.65 7.01487 11.65 7.65H13.15C13.15 6.18645 11.9636 5 10.5 5V6.5ZM9.75 11.45V11.925H11.25V11.45H9.75ZM11.4682 8.27091C11.3498 8.455 11.2011 8.646 11.0252 8.86461C10.8572 9.07347 10.6584 9.31452 10.4801 9.55953C10.1288 10.0423 9.75 10.6783 9.75 11.45H11.25C11.25 11.1723 11.3867 10.863 11.693 10.442C11.8435 10.2352 12.0089 10.0349 12.1939 9.80496C12.371 9.58482 12.5642 9.33972 12.7297 9.08259L11.4682 8.27091ZM9.75 14.3V15.25H11.25V14.3H9.75Z" fill="white"/>
</svg>
