<svg width="58" height="52" viewBox="0 0 58 52" fill="none" xmlns="http://www.w3.org/2000/svg">
<path d="M29.0006 8.73127L27.9027 9.75325C28.1864 10.0581 28.5842 10.2313 29.0006 10.2313C29.4171 10.2313 29.8149 10.0581 30.0986 9.75325L29.0006 8.73127ZM31.0408 6.53943L29.9428 5.51745V5.51745L31.0408 6.53943ZM26.9605 6.53944L28.0585 5.51745L26.9605 6.53944ZM6.55923 28.4577L5.46125 29.4797L6.55923 28.4577ZM24.9204 48.1842L26.0184 47.1622L24.9204 48.1842ZM33.0809 48.1842L31.9829 47.1622L33.0809 48.1842ZM51.4421 28.4577L50.3441 27.4358L51.4421 28.4577ZM51.4421 6.53943L52.54 5.51745L51.4421 6.53943ZM6.55923 6.53943L5.46125 5.51745L6.55923 6.53943ZM30.0986 9.75325L32.1388 7.56142L29.9428 5.51745L27.9027 7.70928L30.0986 9.75325ZM25.8625 7.56142L27.9027 9.75325L30.0986 7.70928L28.0585 5.51745L25.8625 7.56142ZM5.46125 29.4797L23.8224 49.2062L26.0184 47.1622L7.6572 27.4358L5.46125 29.4797ZM34.1789 49.2062L52.54 29.4797L50.3441 27.4358L31.9829 47.1622L34.1789 49.2062ZM50.3441 7.56142C55.4417 13.0381 55.4417 21.9591 50.3441 27.4358L52.54 29.4797C58.7097 22.8513 58.7097 12.1459 52.54 5.51745L50.3441 7.56142ZM52.54 5.51745C46.3131 -1.17248 36.1697 -1.17248 29.9428 5.51745L32.1387 7.56142C37.1792 2.1462 45.3037 2.1462 50.3441 7.56142L52.54 5.51745ZM7.65721 7.56141C12.6976 2.14619 20.8221 2.1462 25.8625 7.56142L28.0585 5.51745C21.8316 -1.17248 11.6882 -1.17249 5.46125 5.51745L7.65721 7.56141ZM23.8224 49.2062C26.6691 52.2646 31.3322 52.2646 34.1789 49.2062L31.9829 47.1622C30.3227 48.9459 27.6786 48.9459 26.0184 47.1622L23.8224 49.2062ZM5.46125 5.51745C-0.708437 12.1459 -0.70844 22.8513 5.46125 29.4797L7.6572 27.4358C2.55958 21.9591 2.55958 13.0381 7.65721 7.56141L5.46125 5.51745Z" fill="#9ACF16"/>
</svg>
