<svg width="57" height="71" viewBox="0 0 57 71" fill="none" xmlns="http://www.w3.org/2000/svg">
<path fill-rule="evenodd" clip-rule="evenodd" d="M16.9219 16.8625C16.9219 10.4905 22.1056 5.325 28.5 5.325C34.8944 5.325 40.0781 10.4905 40.0781 16.8625V21.3H16.9219V16.8625ZM11.5781 21.5492V16.8625C11.5781 7.5496 19.1543 0 28.5 0C37.8457 0 45.4219 7.5496 45.4219 16.8625V21.5492C52.0148 22.7954 57 28.5676 57 35.5V56.8C57 64.6424 50.6201 71 42.75 71H14.25C6.37994 71 0 64.6424 0 56.8V35.5C0 28.5676 4.9852 22.7954 11.5781 21.5492ZM35.625 46.15C35.625 50.0712 32.435 53.25 28.5 53.25C24.565 53.25 21.375 50.0712 21.375 46.15C21.375 42.2288 24.565 39.05 28.5 39.05C32.435 39.05 35.625 42.2288 35.625 46.15Z" fill="#9ACF16"/>
</svg>
