<svg width="252" height="64" viewBox="0 0 252 64" fill="none" xmlns="http://www.w3.org/2000/svg">
<g clip-path="url(#clip0_746_7307)">
<path fill-rule="evenodd" clip-rule="evenodd" d="M81.6239 61.7462C82.2512 62.2086 82.9282 62.5945 83.6414 62.8963L83.1805 64.0194C82.2588 63.6637 81.3985 63.157 80.6325 62.5189C79.7436 63.0254 78.743 63.2854 77.7279 63.2737C76.6935 63.2896 75.6755 63.0064 74.7886 62.456C73.9312 61.92 73.2449 61.1359 72.8146 60.2008C72.335 59.1859 72.0937 58.0685 72.1102 56.9393C72.0957 55.8016 72.3369 54.6759 72.8146 53.6507C73.2539 52.7024 73.9601 51.9132 74.8408 51.3865C75.7345 50.8661 76.7456 50.5995 77.7714 50.6138C78.8072 50.5996 79.8269 50.8793 80.7195 51.4225C81.5862 51.9508 82.2822 52.7324 82.7196 53.6687C83.191 54.6859 83.4262 55.8027 83.4066 56.9303C83.4194 57.8492 83.2691 58.7628 82.9631 59.6258C82.6745 60.4213 82.2169 61.1397 81.6239 61.7282V61.7462ZM78.1454 59.6617C78.9596 59.8779 79.719 60.2732 80.3716 60.8208C80.8558 60.3091 81.2289 59.6966 81.4658 59.0242C81.7028 58.3518 81.7981 57.6348 81.7456 56.9213C81.7677 56.0324 81.6015 55.1492 81.2586 54.3336C80.9614 53.6262 80.4643 53.028 79.8324 52.6175C79.0516 52.1291 78.1351 51.9249 77.2289 52.0372C76.3226 52.1496 75.4789 52.5721 74.8321 53.2374C73.999 54.2672 73.5872 55.5919 73.6842 56.9303C73.6002 58.2545 74.0076 59.5621 74.8234 60.5872C75.1912 61.0012 75.641 61.3287 76.1422 61.5473C76.6433 61.7659 77.1842 61.8705 77.7279 61.854C78.2712 61.8571 78.8095 61.7471 79.3107 61.5306C78.8342 61.2131 78.3116 60.9765 77.7627 60.8297L78.1454 59.6617ZM93.2334 50.8115H94.7987V57.8737C94.8344 58.8668 94.699 59.8586 94.3987 60.8028C94.1223 61.5525 93.611 62.185 92.9464 62.5998C92.1027 63.0844 91.1454 63.3177 90.181 63.2737C89.2437 63.3143 88.3114 63.1136 87.4677 62.6896C86.7876 62.3167 86.2554 61.7096 85.9633 60.9735C85.6271 59.9908 85.4737 58.9512 85.5111 57.9096V50.8295H87.0851V57.8827C87.0482 58.6786 87.1453 59.4751 87.3721 60.2367C87.551 60.7317 87.8968 61.1433 88.3461 61.3958C88.8793 61.6928 89.4801 61.8356 90.0853 61.8091C90.5259 61.8544 90.9707 61.806 91.3925 61.6669C91.8142 61.5278 92.2039 61.301 92.5377 61.0005C93.0247 60.4614 93.2681 59.4191 93.2681 57.8827L93.2334 50.8115ZM97.4423 63.0401V50.8295H105.991V52.2671H99.0338V56.0228H105.565V57.4514H99.0338V61.6204H106.286V63.058L97.4423 63.0401ZM107.921 59.1136L109.391 58.9699C109.436 59.5085 109.602 60.0287 109.878 60.4883C110.181 60.9146 110.594 61.2445 111.069 61.4407C111.644 61.6918 112.263 61.8172 112.887 61.8091C113.427 61.8209 113.964 61.7264 114.47 61.5306C114.872 61.3814 115.225 61.1164 115.487 60.7668C115.705 60.4664 115.821 60.1001 115.818 59.7246C115.825 59.3609 115.712 59.0055 115.496 58.7183C115.21 58.3854 114.844 58.1372 114.435 57.9995C114.113 57.8737 113.417 57.676 112.33 57.4065C111.542 57.2425 110.775 56.9863 110.043 56.6427C109.531 56.3864 109.096 55.9922 108.782 55.5017C108.506 55.0471 108.364 54.5196 108.374 53.9832C108.371 53.3663 108.547 52.7626 108.878 52.2491C109.263 51.6861 109.811 51.2644 110.443 51.0451C111.131 50.758 111.867 50.6145 112.609 50.6228C113.403 50.6051 114.194 50.7549 114.931 51.0631C115.56 51.3198 116.1 51.7678 116.478 52.3479C116.837 52.9262 117.038 53.5934 117.061 54.2797L115.557 54.3965C115.539 54.0645 115.458 53.7393 115.317 53.4401C115.177 53.1408 114.981 52.8734 114.739 52.6534C114.136 52.216 113.405 52.0066 112.669 52.0604C111.941 51.9986 111.213 52.1882 110.6 52.5995C110.4 52.7468 110.237 52.9408 110.124 53.1656C110.01 53.3905 109.95 53.6398 109.948 53.8933C109.943 54.0983 109.982 54.3017 110.062 54.4895C110.142 54.6772 110.26 54.8448 110.408 54.9805C111.131 55.441 111.935 55.7466 112.774 55.879C113.662 56.0626 114.535 56.321 115.383 56.6517C115.99 56.9176 116.516 57.3493 116.905 57.9006C117.235 58.4133 117.405 59.0188 117.392 59.6347C117.386 60.2754 117.199 60.9002 116.852 61.4317C116.476 62.0263 115.937 62.4921 115.304 62.7705C114.588 63.0993 113.81 63.2619 113.026 63.2467C112.109 63.2726 111.195 63.1108 110.339 62.7705C109.645 62.4715 109.055 61.9644 108.643 61.3149C108.229 60.6626 108.003 59.9024 107.991 59.1226L107.921 59.1136ZM122.531 63.049V52.2671H118.635V50.8295H128.001V52.2671H124.105V63.049H122.531ZM127.949 59.3742H132.445V57.8827H127.923L127.949 59.3742ZM142.619 58.7632L144.193 59.1765C143.952 60.3585 143.341 61.4256 142.454 62.2134C141.557 62.9221 140.452 63.2902 139.324 63.2557C138.235 63.3073 137.156 63.0293 136.219 62.456C135.398 61.889 134.765 61.0773 134.401 60.1289C133.981 59.0905 133.768 57.975 133.775 56.8494C133.749 55.699 133.991 54.5589 134.48 53.525C134.918 52.6073 135.62 51.8513 136.489 51.3596C137.366 50.8654 138.351 50.6117 139.35 50.6228C140.412 50.5758 141.461 50.8915 142.332 51.5213C143.163 52.1757 143.758 53.0997 144.019 54.1449L142.48 54.5223C142.291 53.7619 141.874 53.0827 141.289 52.5815C140.717 52.1592 140.026 51.9444 139.324 51.9706C138.517 51.9392 137.721 52.1753 137.054 52.6444C136.451 53.0868 136 53.7163 135.767 54.4414C135.517 55.1963 135.391 55.9888 135.393 56.7865C135.377 57.7057 135.527 58.6198 135.836 59.482C136.084 60.2053 136.562 60.8201 137.193 61.2251C137.8 61.5994 138.495 61.7952 139.202 61.7911C140.008 61.8134 140.795 61.536 141.419 61.0094C142.048 60.4177 142.47 59.6281 142.619 58.7632V58.7632ZM146.098 63.058V50.8295H147.663V61.6114H153.481V63.049L146.098 63.058ZM163.108 50.8295H164.673V57.8917C164.709 58.8848 164.573 59.8766 164.273 60.8208C163.997 61.5704 163.485 62.203 162.821 62.6178C161.977 63.1024 161.02 63.3356 160.055 63.2916C159.118 63.3322 158.186 63.1315 157.342 62.7076C156.662 62.3347 156.13 61.7275 155.838 60.9915C155.502 60.0087 155.348 58.9692 155.385 57.9276V50.8295H156.96V57.8827C156.923 58.6786 157.02 59.4751 157.246 60.2367C157.425 60.7317 157.771 61.1433 158.22 61.3958C158.754 61.6928 159.355 61.8356 159.96 61.8091C160.4 61.8544 160.845 61.806 161.267 61.6669C161.689 61.5278 162.078 61.301 162.412 61.0005C162.899 60.4614 163.143 59.4191 163.143 57.8827L163.108 50.8295ZM167.221 63.058V50.8295H171.665C172.406 50.8026 173.145 50.9278 173.839 51.1979C174.369 51.4322 174.816 51.8309 175.117 52.3389C175.42 52.8205 175.583 53.3818 175.587 53.9562C175.589 54.4788 175.444 54.9908 175.169 55.4298C174.868 55.9196 174.436 56.3095 173.926 56.5529C174.578 56.7258 175.158 57.1138 175.578 57.658C175.964 58.1915 176.166 58.8431 176.152 59.509C176.154 60.0623 176.035 60.6088 175.804 61.1083C175.604 61.553 175.306 61.9436 174.935 62.2494C174.543 62.5328 174.104 62.7371 173.639 62.8514C173.012 62.9998 172.369 63.0691 171.726 63.058H167.221ZM168.795 55.9689H171.317C171.817 55.992 172.317 55.9436 172.804 55.8251C173.152 55.7272 173.458 55.5122 173.674 55.2141C173.882 54.9001 173.989 54.5256 173.978 54.1449C173.986 53.7672 173.886 53.3955 173.691 53.0757C173.512 52.7627 173.222 52.534 172.882 52.4378C172.296 52.2964 171.693 52.239 171.091 52.2671H168.726L168.795 55.9689ZM168.795 61.6204H171.734C172.092 61.6326 172.45 61.6116 172.804 61.5575C173.112 61.5057 173.407 61.3928 173.674 61.2251C173.928 61.0553 174.135 60.8199 174.274 60.5422C174.436 60.2241 174.517 59.8684 174.509 59.509C174.519 59.0866 174.4 58.6717 174.169 58.3229C173.94 57.981 173.606 57.728 173.221 57.6041C172.655 57.4491 172.068 57.3825 171.482 57.4065H168.752L168.795 61.6204Z" fill="#101010"/>
<path fill-rule="evenodd" clip-rule="evenodd" d="M79.2147 41.7081C79.2218 41.8299 79.188 41.9505 79.1191 42.0495C79.0371 42.1631 78.9208 42.2453 78.7886 42.2831C78.5867 42.3495 78.3803 42.4006 78.1712 42.4359C77.8421 42.4755 77.511 42.4935 77.1798 42.4898C76.8573 42.4928 76.5349 42.4748 76.2145 42.4359C75.9993 42.4025 75.787 42.3514 75.5797 42.2831C75.4475 42.2453 75.3312 42.1631 75.2492 42.0495C75.1803 41.9505 75.1465 41.8299 75.1536 41.7081V11.3658C75.1449 11.2424 75.1823 11.1203 75.2579 11.0244C75.3569 10.8943 75.4998 10.8076 75.6579 10.7818C75.8647 10.7113 76.0772 10.6602 76.2928 10.629C76.6008 10.5824 76.912 10.5614 77.2233 10.5661C77.5548 10.5603 77.8863 10.5814 78.2146 10.629C78.4246 10.66 78.6313 10.7111 78.8321 10.7818C78.9672 10.8129 79.0855 10.8966 79.1625 11.0154C79.2315 11.1144 79.2653 11.235 79.2582 11.3568L79.2147 41.7081ZM113.774 40.585C113.779 40.8698 113.723 41.1523 113.608 41.4116C113.515 41.6295 113.375 41.823 113.2 41.9776C113.029 42.1188 112.834 42.2255 112.626 42.2921C112.42 42.355 112.206 42.3883 111.991 42.3909H110.643C110.281 42.3838 109.922 42.3294 109.573 42.2292C109.256 42.1262 108.961 41.9615 108.704 41.744C108.373 41.4688 108.081 41.1484 107.834 40.7916C107.49 40.2992 107.185 39.7794 106.921 39.2372L97.5725 21.2673C97.0855 20.3688 96.5898 19.3624 96.1028 18.3471C95.6158 17.3318 95.1376 16.3345 94.7114 15.3821H94.6593C94.6593 16.5501 94.7201 17.7451 94.7375 18.9761C94.7549 20.207 94.7375 21.402 94.7375 22.5701V41.7081C94.7364 41.8273 94.7 41.9433 94.6332 42.0405C94.545 42.1534 94.4273 42.2376 94.294 42.2831C94.0924 42.3506 93.8859 42.4017 93.6766 42.4359C93.3505 42.4755 93.0222 42.4935 92.6939 42.4898C92.3627 42.4943 92.0315 42.4763 91.7025 42.4359C91.4958 42.403 91.2921 42.3519 91.0938 42.2831C90.963 42.2375 90.8481 42.1531 90.7633 42.0405C90.7028 41.9408 90.6697 41.8258 90.6677 41.7081V12.5788C90.642 12.3189 90.6777 12.0565 90.7715 11.814C90.8654 11.5714 91.0148 11.356 91.2068 11.1861C91.5435 10.9187 91.9562 10.7734 92.3808 10.7728H94.381C94.7758 10.7658 95.17 10.8081 95.555 10.8986C95.8691 10.9687 96.1654 11.1065 96.4246 11.3029C96.7059 11.5227 96.9524 11.7864 97.1551 12.0846C97.4335 12.4829 97.6807 12.9035 97.8943 13.3425L105.077 27.2153C105.521 28.0599 105.947 28.8865 106.364 29.6952C106.782 30.5038 107.173 31.2945 107.556 32.0852L108.686 34.3943C109.06 35.1401 109.425 35.9038 109.799 36.6765C109.799 35.3827 109.739 34.0529 109.73 32.6602C109.721 31.2675 109.73 29.9647 109.73 28.6349V11.4646C109.731 11.3495 109.764 11.2371 109.826 11.1412C109.919 11.0323 110.035 10.9464 110.165 10.8896C110.365 10.8041 110.576 10.7496 110.791 10.7279C111.13 10.7062 111.469 10.7062 111.808 10.7279C112.121 10.7073 112.435 10.7073 112.747 10.7279C112.963 10.7449 113.175 10.7996 113.374 10.8896C113.502 10.945 113.615 11.0313 113.704 11.1412C113.766 11.2371 113.799 11.3495 113.8 11.4646L113.774 40.585ZM148.115 15.0497C148.117 15.3232 148.1 15.5965 148.063 15.8673C148.038 16.0668 147.992 16.2627 147.924 16.4513C147.877 16.5851 147.792 16.701 147.68 16.7838C147.591 16.8482 147.485 16.8827 147.376 16.8826C147.032 16.8055 146.71 16.6454 146.437 16.4154C145.879 16.0329 145.298 15.6877 144.697 15.3821C143.827 14.9629 142.922 14.6261 141.993 14.3758C140.797 14.0416 139.562 13.8843 138.323 13.9086C136.761 13.8796 135.211 14.2047 133.784 14.861C132.473 15.4712 131.309 16.3733 130.375 17.5026C129.414 18.6817 128.684 20.0427 128.227 21.5099C127.726 23.1364 127.476 24.8345 127.488 26.5414C127.46 28.3735 127.737 30.1968 128.305 31.9324C128.793 33.3942 129.562 34.7389 130.566 35.8858C131.53 36.9636 132.72 37.7995 134.045 38.3297C135.429 38.8938 136.905 39.1775 138.393 39.1653C139.366 39.1645 140.335 39.0438 141.28 38.8059C142.226 38.5765 143.139 38.2169 143.993 37.7367V28.4822H136.914C136.784 28.4862 136.656 28.4487 136.547 28.3747C136.438 28.3008 136.354 28.194 136.306 28.0689C136.146 27.6554 136.078 27.2103 136.106 26.7661C136.103 26.5015 136.12 26.2371 136.158 25.9754C136.177 25.7884 136.227 25.6061 136.306 25.4363C136.362 25.3285 136.439 25.2337 136.532 25.1578C136.638 25.088 136.762 25.0535 136.888 25.0589H146.619C146.797 25.0611 146.974 25.0945 147.141 25.1578C147.315 25.2248 147.474 25.3254 147.611 25.4543C147.766 25.596 147.881 25.7795 147.941 25.9844C148.024 26.2361 148.065 26.5003 148.063 26.7661V38.8059C148.072 39.1827 148.001 39.557 147.854 39.9021C147.659 40.2654 147.353 40.5526 146.985 40.7197C146.418 41.0071 145.837 41.265 145.245 41.4924C144.51 41.771 143.761 42.0109 143.002 42.2112C141.469 42.5913 139.899 42.7843 138.323 42.7863C136.157 42.8284 134.002 42.4442 131.975 41.6542C130.189 40.9496 128.579 39.8413 127.262 38.4106C125.946 36.9675 124.941 35.2526 124.313 33.379C123.611 31.2727 123.267 29.0566 123.296 26.829C123.253 24.5086 123.613 22.199 124.357 20.0094C125.036 18.0714 126.093 16.2978 127.462 14.7981C128.791 13.3562 130.4 12.2203 132.184 11.4646C134.156 10.6544 136.262 10.2515 138.384 10.2786C139.487 10.2737 140.588 10.379 141.671 10.5931C142.597 10.7804 143.509 11.0325 144.402 11.3478C145.099 11.5771 145.772 11.8781 146.411 12.2463C146.814 12.4728 147.191 12.7472 147.532 13.064C147.734 13.2676 147.88 13.5213 147.959 13.8007C148.052 14.1946 148.093 14.5996 148.08 15.0047L148.115 15.0497ZM181.857 40.8096C181.965 41.0975 182.032 41.4002 182.057 41.7081C182.066 41.7987 182.055 41.8902 182.025 41.9758C181.994 42.0614 181.946 42.1388 181.883 42.2023C181.697 42.3339 181.481 42.4115 181.257 42.4269C180.961 42.4269 180.578 42.4269 180.083 42.4269C179.587 42.4269 179.213 42.4269 178.909 42.4269C178.683 42.4195 178.461 42.3771 178.248 42.3011C178.117 42.2604 178.001 42.1788 177.917 42.0675C177.841 41.9535 177.774 41.8333 177.717 41.7081L175.108 34.008H162.412L159.907 41.6003C159.867 41.74 159.802 41.8709 159.716 41.9866C159.626 42.1042 159.51 42.1969 159.377 42.2562C159.171 42.3428 158.954 42.3973 158.733 42.4179C158.464 42.4179 158.107 42.4179 157.664 42.4179C157.289 42.4223 156.914 42.4043 156.542 42.364C156.318 42.35 156.104 42.2688 155.924 42.1304C155.862 42.0644 155.816 41.985 155.787 41.898C155.758 41.811 155.749 41.7185 155.759 41.6272C155.779 41.3186 155.846 41.0152 155.959 40.7287L166.212 11.3658C166.268 11.2039 166.354 11.0544 166.464 10.9255C166.587 10.7926 166.744 10.6989 166.916 10.656C167.162 10.5749 167.416 10.5266 167.673 10.5122C167.986 10.5122 168.369 10.5122 168.847 10.5122C169.325 10.5122 169.769 10.5122 170.099 10.5122C170.368 10.5263 170.634 10.5746 170.891 10.656C171.072 10.6965 171.238 10.7901 171.369 10.9255C171.486 11.058 171.574 11.214 171.63 11.3838L181.857 40.8096ZM168.708 14.9328L163.438 30.6835H174.073L168.708 14.9328ZM223.494 41.7081C223.501 41.8299 223.468 41.9505 223.399 42.0495C223.313 42.1633 223.194 42.2453 223.059 42.2831C222.857 42.3495 222.651 42.4006 222.442 42.4359C222.116 42.476 221.788 42.4941 221.459 42.4898C221.134 42.493 220.809 42.475 220.485 42.4359C220.273 42.4016 220.064 42.3505 219.859 42.2831C219.728 42.243 219.612 42.1612 219.529 42.0495C219.46 41.9505 219.426 41.8299 219.433 41.7081V14.1691H219.381L208.658 41.8339C208.615 41.9451 208.547 42.0438 208.458 42.1214C208.35 42.2186 208.223 42.2892 208.084 42.328C207.891 42.3976 207.689 42.4399 207.484 42.4538C207.212 42.4693 206.939 42.4693 206.667 42.4538C206.377 42.4709 206.087 42.4709 205.797 42.4538C205.597 42.4262 205.399 42.3811 205.206 42.3191C205.07 42.2717 204.943 42.1985 204.832 42.1034C204.756 42.031 204.697 41.942 204.658 41.8429L194.37 14.1691V41.7081C194.378 41.8299 194.344 41.9505 194.275 42.0495C194.189 42.1633 194.07 42.2453 193.936 42.2831C193.728 42.3504 193.516 42.4014 193.301 42.4359C192.972 42.4757 192.641 42.4937 192.309 42.4898C191.984 42.4941 191.659 42.4761 191.336 42.4359C191.123 42.4016 190.914 42.3505 190.709 42.2831C190.589 42.2501 190.483 42.1746 190.41 42.0697C190.337 41.9648 190.301 41.837 190.309 41.7081V12.6417C190.283 12.3713 190.316 12.0982 190.406 11.843C190.497 11.5877 190.642 11.357 190.831 11.1681C191.165 10.8854 191.582 10.7299 192.014 10.7279H194.51C194.96 10.7217 195.41 10.773 195.849 10.8806C196.211 10.9631 196.554 11.1188 196.858 11.3389C197.149 11.5543 197.395 11.8296 197.579 12.1475C197.79 12.5094 197.959 12.8954 198.084 13.2976L206.841 36.1913H206.971L216.059 13.3605C216.208 12.9278 216.401 12.5123 216.633 12.1205C216.816 11.8101 217.048 11.5336 217.32 11.3029C217.564 11.1005 217.845 10.9508 218.146 10.8627C218.489 10.7681 218.843 10.7227 219.198 10.7279H221.807C222.04 10.7272 222.272 10.7635 222.494 10.8357C222.699 10.9066 222.886 11.0231 223.042 11.1771C223.202 11.3487 223.329 11.5499 223.416 11.7701C223.521 12.0566 223.569 12.3624 223.555 12.6686L223.494 41.7081ZM251.957 40.5939C251.96 40.8555 251.943 41.117 251.905 41.3756C251.879 41.5663 251.823 41.7514 251.74 41.9237C251.681 42.0531 251.587 42.1622 251.47 42.2382C251.367 42.3072 251.245 42.3417 251.122 42.337H236.426C236.054 42.3306 235.695 42.2015 235.399 41.9686C235.223 41.7998 235.088 41.591 235.003 41.3586C234.918 41.1263 234.887 40.8768 234.912 40.6299V12.435C234.888 12.1895 234.92 11.9416 235.004 11.7108C235.089 11.48 235.224 11.2727 235.399 11.1052C235.692 10.8657 236.053 10.733 236.426 10.7279H250.948C251.071 10.7273 251.191 10.7615 251.296 10.8267C251.409 10.9033 251.496 11.0128 251.548 11.1412C251.617 11.3216 251.669 11.5081 251.705 11.6983C251.744 11.9689 251.761 12.2423 251.757 12.5159C251.76 12.7745 251.742 13.0329 251.705 13.2886C251.671 13.4733 251.618 13.6539 251.548 13.8277C251.494 13.9519 251.406 14.0578 251.296 14.1332C251.191 14.1984 251.071 14.2326 250.948 14.232H239.026V24.1155H249.305C249.428 24.1167 249.549 24.1541 249.653 24.2233C249.756 24.3061 249.842 24.4101 249.905 24.5288C249.989 24.697 250.042 24.8798 250.061 25.0679C250.095 25.3359 250.11 25.6063 250.105 25.8765C250.11 26.1289 250.096 26.3814 250.061 26.6313C250.041 26.8135 249.988 26.9902 249.905 27.1524C249.849 27.269 249.761 27.366 249.653 27.431C249.546 27.491 249.426 27.5219 249.305 27.5208H239.026V38.8419H251.2C251.324 38.8372 251.445 38.8717 251.548 38.9407C251.661 39.0142 251.754 39.1163 251.818 39.2372C251.904 39.4085 251.96 39.594 251.983 39.7853C252.022 40.053 252.039 40.3234 252.035 40.5939" fill="#101010"/>
<path fill-rule="evenodd" clip-rule="evenodd" d="M45.0039 37.8531L53.361 32.8125V42.705L45.0909 47.6647L45.0039 37.8531Z" fill="#9ACF16"/>
<path fill-rule="evenodd" clip-rule="evenodd" d="M13.9489 37.8101L5.5918 32.7695V42.671L13.8619 47.6217L13.9489 37.8101Z" fill="#9ACF16"/>
<path fill-rule="evenodd" clip-rule="evenodd" d="M45.0039 24.4585L53.361 19.418V30.4335L45.0909 35.3843L45.0039 24.4585Z" fill="#101010"/>
<path fill-rule="evenodd" clip-rule="evenodd" d="M13.9313 24.5015L5.57422 19.4609V30.4765L13.8357 35.4272L13.9313 24.5015Z" fill="#101010"/>
<path fill-rule="evenodd" clip-rule="evenodd" d="M33.8281 44.4664L43.0809 38.9766V48.878L33.9151 54.278L33.8281 44.4664Z" fill="#101010"/>
<path fill-rule="evenodd" clip-rule="evenodd" d="M25.2793 44.6449L16.0352 39.1641V49.0565L25.1923 54.4565L25.2793 44.6449Z" fill="#101010"/>
<path fill-rule="evenodd" clip-rule="evenodd" d="M29.7059 0L38.3761 4.6632L29.7059 9.68581L20.8184 4.69016L29.7059 0Z" fill="#9ACF16"/>
<path fill-rule="evenodd" clip-rule="evenodd" d="M18.5325 5.94922L27.194 10.6124L17.576 16.1921L8.67969 11.1964L18.5325 5.94922Z" fill="#101010"/>
<path fill-rule="evenodd" clip-rule="evenodd" d="M40.6038 5.88672L31.9336 10.5499L41.5603 16.1296L50.4479 11.1339L40.6038 5.88672Z" fill="#101010"/>
<path fill-rule="evenodd" clip-rule="evenodd" d="M0 10.7825C0.252191 15.6973 -0.565256 25.8952 2.60888 29.3814L2.72193 14.1069L28.3933 29.3814V59.499C26.7932 59.3014 18.2621 53.2724 15.4619 52.1942C16.3924 55.7074 26.0888 61.7183 29.7934 63.7938C33.6023 61.9969 43.1334 55.8511 44.2639 52.1942L31.3065 59.5619V29.3814L57.0387 14.1069L57.1083 29.3814C60.2215 26.3624 59.5432 15.1582 59.7172 10.5129C54.6559 8.71593 49.5686 3.56754 42.3247 4.04374L55.4473 11.5821L29.8107 26.614L4.34813 11.2587C5.52212 10.7645 16.6533 4.0707 16.9577 3.49566C12.0008 2.98352 4.6351 8.26668 0 10.7825Z" fill="#101010"/>
</g>
<defs>
<clipPath id="clip0_746_7307">
<rect width="252" height="64" fill="white"/>
</clipPath>
</defs>
</svg>
