<svg width="33" height="33" viewBox="0 0 33 33" fill="none" xmlns="http://www.w3.org/2000/svg">
<path d="M21.625 23.3333L21.4779 24.0688C21.8096 24.1351 22.1446 23.9713 22.2958 23.6687L21.625 23.3333ZM9.66667 11.375L9.33126 10.7042C9.02875 10.8554 8.8649 11.1904 8.93123 11.5221L9.66667 11.375ZM10.2714 11.0726L10.6069 11.7434L10.6069 11.7434L10.2714 11.0726ZM11.9158 6.74773L12.6121 6.46919V6.46919L11.9158 6.74773ZM10.5258 3.27275L9.82941 3.55129L10.5258 3.27275ZM29.7273 22.4742L30.0058 21.7779L29.7273 22.4742ZM26.2523 21.0842L26.5308 20.3879L26.2523 21.0842ZM21.9274 22.7286L22.5982 23.064H22.5982L21.9274 22.7286ZM31.125 25.6465V28.4583H32.625V25.6465H31.125ZM4.54167 1.875H7.35347V0.375H4.54167V1.875ZM21.625 23.3333C21.7721 22.5979 21.7723 22.5979 21.7725 22.598C21.7725 22.598 21.7727 22.598 21.7728 22.598C21.7729 22.5981 21.773 22.5981 21.7731 22.5981C21.7732 22.5981 21.773 22.5981 21.7725 22.598C21.7717 22.5978 21.7698 22.5974 21.7669 22.5968C21.7612 22.5956 21.7514 22.5935 21.7379 22.5905C21.7108 22.5846 21.6684 22.5749 21.6121 22.5612C21.4993 22.5338 21.3306 22.4901 21.1159 22.427C20.6862 22.3006 20.074 22.0967 19.3579 21.7898C17.9223 21.1745 16.0897 20.1541 14.4678 18.5322L13.4072 19.5928C15.2019 21.3876 17.2131 22.5026 18.7671 23.1685C19.5458 23.5023 20.2149 23.7255 20.6927 23.866C20.9317 23.9363 21.1234 23.9861 21.2576 24.0187C21.3246 24.035 21.3774 24.0471 21.4145 24.0553C21.4331 24.0594 21.4478 24.0625 21.4584 24.0647C21.4637 24.0659 21.468 24.0667 21.4712 24.0674C21.4729 24.0678 21.4742 24.068 21.4754 24.0683C21.4759 24.0684 21.4764 24.0685 21.4768 24.0686C21.477 24.0686 21.4773 24.0686 21.4774 24.0687C21.4777 24.0687 21.4779 24.0688 21.625 23.3333ZM14.4678 18.5322C12.8459 16.9103 11.8255 15.0777 11.2102 13.6421C10.9033 12.926 10.6994 12.3138 10.573 11.8841C10.5099 11.6694 10.4662 11.5007 10.4388 11.3879C10.4251 11.3316 10.4154 11.2892 10.4095 11.2621C10.4065 11.2486 10.4044 11.2388 10.4032 11.2331C10.4026 11.2302 10.4022 11.2283 10.402 11.2275C10.4019 11.227 10.4019 11.2268 10.4019 11.2269C10.4019 11.227 10.4019 11.2271 10.402 11.2272C10.402 11.2273 10.402 11.2275 10.402 11.2275C10.4021 11.2277 10.4021 11.2279 9.66667 11.375C8.93123 11.5221 8.93128 11.5223 8.93133 11.5226C8.93135 11.5227 8.93141 11.523 8.93145 11.5232C8.93153 11.5236 8.93163 11.5241 8.93175 11.5246C8.93197 11.5258 8.93225 11.5271 8.93259 11.5288C8.93325 11.532 8.93414 11.5363 8.93526 11.5416C8.93749 11.5522 8.94063 11.5669 8.94473 11.5855C8.95293 11.6226 8.96497 11.6754 8.98129 11.7424C9.01392 11.8766 9.06368 12.0683 9.13399 12.3073C9.27452 12.7851 9.49775 13.4542 9.83147 14.2329C10.4974 15.7869 11.6124 17.7981 13.4072 19.5928L14.4678 18.5322ZM10.0021 12.0458L10.6069 11.7434L9.93604 10.4018L9.33126 10.7042L10.0021 12.0458ZM12.6121 6.46919L11.2221 2.99421L9.82941 3.55129L11.2194 7.02628L12.6121 6.46919ZM30.0058 21.7779L26.5308 20.3879L25.9737 21.7806L29.4487 23.1706L30.0058 21.7779ZM21.2566 22.3931L20.9542 22.9979L22.2958 23.6687L22.5982 23.064L21.2566 22.3931ZM26.5308 20.3879C24.5188 19.5831 22.2257 20.4549 21.2566 22.3931L22.5982 23.064C23.2185 21.8235 24.686 21.2655 25.9737 21.7806L26.5308 20.3879ZM10.6069 11.7434C12.5451 10.7743 13.4169 8.48123 12.6121 6.46919L11.2194 7.02628C11.7345 8.31398 11.1765 9.78155 9.93604 10.4018L10.6069 11.7434ZM7.35347 1.875C8.44388 1.875 9.42444 2.53887 9.82941 3.55129L11.2221 2.99421C10.5894 1.4123 9.05724 0.375 7.35347 0.375V1.875ZM32.625 25.6465C32.625 23.9428 31.5877 22.4106 30.0058 21.7779L29.4487 23.1706C30.4611 23.5756 31.125 24.5561 31.125 25.6465H32.625ZM28.4583 31.125C13.7768 31.125 1.875 19.2232 1.875 4.54167H0.375C0.375 20.0517 12.9483 32.625 28.4583 32.625V31.125ZM28.4583 32.625C30.7595 32.625 32.625 30.7595 32.625 28.4583H31.125C31.125 29.9311 29.9311 31.125 28.4583 31.125V32.625ZM1.875 4.54167C1.875 3.06891 3.06891 1.875 4.54167 1.875V0.375C2.24048 0.375 0.375 2.24048 0.375 4.54167H1.875Z" fill="#28303F"/>
</svg>
