<svg width="20" height="18" viewBox="0 0 20 18" fill="none" xmlns="http://www.w3.org/2000/svg">
<path d="M17.2971 1.44458L16.9996 0.756125L16.9996 0.756125L17.2971 1.44458ZM1.90842 8.0952L1.61088 7.40674H1.61088L1.90842 8.0952ZM18.6815 2.51906L19.4222 2.63646V2.63645L18.6815 2.51906ZM16.5774 15.795L15.8367 15.6776L16.5774 15.795ZM14.8626 16.325L14.3155 16.838L14.3172 16.8398L14.8626 16.325ZM2.16199 10.0028L2.05464 10.7451H2.05464L2.16199 10.0028ZM8.60602 9.89269L8.18819 9.26986L8.60602 9.89269ZM5.80505 10.5297L5.9124 9.78745L5.80505 10.5297ZM13.7227 6.92966L13.1305 6.4695C13.1244 6.47728 13.1185 6.48518 13.1128 6.4932L13.7227 6.92966ZM13.4533 6.64086L13.8712 7.2637L13.4533 6.64086ZM11.529 12.7699L12.0761 12.2569L12.0743 12.255L11.529 12.7699ZM11.404 10.1698L11.9962 10.63C12.0023 10.6222 12.0082 10.6143 12.0139 10.6063L11.404 10.1698ZM16.9996 0.756125L1.61088 7.40674L2.20595 8.78365L17.5946 2.13304L16.9996 0.756125ZM19.4222 2.63645C19.6382 1.27383 18.266 0.208805 16.9996 0.756125L17.5946 2.13304C17.7755 2.05485 17.9716 2.20699 17.9407 2.40166L19.4222 2.63645ZM17.3182 15.9124L19.4222 2.63646L17.9407 2.40166L15.8367 15.6776L17.3182 15.9124ZM14.3172 16.8398C15.3147 17.8964 17.0908 17.3475 17.3182 15.9124L15.8367 15.6776C15.8042 15.8826 15.5505 15.9611 15.408 15.8101L14.3172 16.8398ZM10.9819 13.2829L14.3155 16.838L15.4097 15.812L12.0761 12.2569L10.9819 13.2829ZM12.0139 10.6063L14.3326 7.36613L13.1128 6.4932L10.7941 9.73338L12.0139 10.6063ZM13.0355 6.01803L8.18819 9.26986L9.02385 10.5155L13.8712 7.2637L13.0355 6.01803ZM2.05464 10.7451L5.69769 11.272L5.9124 9.78745L2.26934 9.26056L2.05464 10.7451ZM1.61088 7.40674C-0.00896096 8.1068 0.308157 10.4925 2.05464 10.7451L2.26934 9.26056C2.19007 9.2491 2.14795 9.21916 2.12159 9.19068C2.09066 9.15726 2.06542 9.10711 2.05731 9.04608C2.0492 8.98505 2.06046 8.93005 2.08159 8.88971C2.09959 8.85533 2.13243 8.81543 2.20595 8.78365L1.61088 7.40674ZM8.18819 9.26986C7.51985 9.71822 6.70892 9.90265 5.9124 9.78745L5.69769 11.272C6.86183 11.4404 8.04704 11.1708 9.02385 10.5155L8.18819 9.26986ZM14.3149 7.38983C14.977 6.5378 13.9316 5.41692 13.0355 6.01803L13.8712 7.2637C13.3524 7.61171 12.7472 6.96278 13.1305 6.4695L14.3149 7.38983ZM12.0743 12.255C11.6511 11.8067 11.618 11.1168 11.9962 10.63L10.8117 9.70968C9.97956 10.7807 10.0525 12.2985 10.9836 13.2848L12.0743 12.255Z" fill="white"/>
</svg>
