<svg width="28" height="20" viewBox="0 0 28 20" fill="none" xmlns="http://www.w3.org/2000/svg">
<path d="M2.58713 12.6836L2.0435 13.2003L2.58713 12.6836ZM2.58713 7.31637L2.0435 6.79969L2.58713 7.31637ZM25.4129 12.6836L25.9565 13.2003L25.4129 12.6836ZM25.4129 7.31637L25.9565 6.79968L25.4129 7.31637ZM24.8692 12.1669C22.4403 14.7225 18.4339 18 14 18V19.5C19.1049 19.5 23.4959 15.7892 25.9565 13.2003L24.8692 12.1669ZM14 18C9.56611 18 5.55965 14.7225 3.13076 12.1669L2.0435 13.2003C4.50408 15.7892 8.8951 19.5 14 19.5V18ZM3.13076 7.83306C5.55965 5.27752 9.56611 2 14 2V0.5C8.8951 0.5 4.50408 4.21081 2.0435 6.79969L3.13076 7.83306ZM14 2C18.4339 2 22.4403 5.27752 24.8692 7.83306L25.9565 6.79968C23.4959 4.21081 19.1049 0.5 14 0.5V2ZM3.13076 12.1669C1.95641 10.9314 1.95641 9.06864 3.13076 7.83306L2.0435 6.79969C0.318832 8.61428 0.318833 11.3857 2.0435 13.2003L3.13076 12.1669ZM25.9565 13.2003C27.6812 11.3857 27.6812 8.61428 25.9565 6.79968L24.8692 7.83306C26.0436 9.06864 26.0436 10.9314 24.8692 12.1669L25.9565 13.2003ZM17 10C17 11.6569 15.6569 13 14 13V14.5C16.4853 14.5 18.5 12.4853 18.5 10H17ZM14 13C12.3431 13 11 11.6569 11 10H9.5C9.5 12.4853 11.5147 14.5 14 14.5V13ZM11 10C11 8.34315 12.3431 7 14 7V5.5C11.5147 5.5 9.5 7.51472 9.5 10H11ZM14 7C15.6569 7 17 8.34315 17 10H18.5C18.5 7.51472 16.4853 5.5 14 5.5V7Z" fill="#28303F"/>
</svg>
