<svg width="40" height="40" viewBox="0 0 40 40" fill="none" xmlns="http://www.w3.org/2000/svg">
<path d="M19.9987 19.9997H19.4987C19.4987 20.2149 19.6364 20.406 19.8406 20.474L19.9987 19.9997ZM20.4987 10.4163C20.4987 10.1402 20.2748 9.91634 19.9987 9.91634C19.7226 9.91634 19.4987 10.1402 19.4987 10.4163H20.4987ZM25.5906 22.3907C25.8526 22.478 26.1357 22.3364 26.223 22.0745C26.3104 21.8125 26.1688 21.5293 25.9068 21.442L25.5906 22.3907ZM20.4987 19.9997V10.4163H19.4987V19.9997H20.4987ZM19.8406 20.474L25.5906 22.3907L25.9068 21.442L20.1568 19.5253L19.8406 20.474ZM38.6654 19.9997C38.6654 30.309 30.308 38.6663 19.9987 38.6663V39.6663C30.8603 39.6663 39.6654 30.8613 39.6654 19.9997H38.6654ZM19.9987 38.6663C9.68938 38.6663 1.33203 30.309 1.33203 19.9997H0.332031C0.332031 30.8613 9.1371 39.6663 19.9987 39.6663V38.6663ZM1.33203 19.9997C1.33203 9.69036 9.68938 1.33301 19.9987 1.33301V0.333008C9.1371 0.333008 0.332031 9.13807 0.332031 19.9997H1.33203ZM19.9987 1.33301C30.308 1.33301 38.6654 9.69036 38.6654 19.9997H39.6654C39.6654 9.13807 30.8603 0.333008 19.9987 0.333008V1.33301Z" fill="#101010"/>
</svg>
